<svg width="116" height="14" viewBox="0 0 116 14" fill="none" xmlns="http://www.w3.org/2000/svg">
<path d="M4.74316 1.04688V11H3.44434V1.04688H4.74316ZM7.94238 1.04688V2.12695H0.251953V1.04688H7.94238ZM10.4922 0.5V11H9.22754V0.5H10.4922ZM10.1914 7.02148L9.66504 7.00098C9.6696 6.49512 9.74479 6.02799 9.89062 5.59961C10.0365 5.16667 10.2415 4.79069 10.5059 4.47168C10.7702 4.15267 11.0846 3.90658 11.4492 3.7334C11.8184 3.55566 12.2262 3.4668 12.6729 3.4668C13.0374 3.4668 13.3656 3.51693 13.6572 3.61719C13.9489 3.71289 14.1973 3.86784 14.4023 4.08203C14.612 4.29622 14.7715 4.57422 14.8809 4.91602C14.9902 5.25326 15.0449 5.66569 15.0449 6.15332V11H13.7734V6.13965C13.7734 5.75228 13.7165 5.44238 13.6025 5.20996C13.4886 4.97298 13.3223 4.80208 13.1035 4.69727C12.8848 4.58789 12.6159 4.5332 12.2969 4.5332C11.9824 4.5332 11.6953 4.59928 11.4355 4.73145C11.1803 4.86361 10.9593 5.0459 10.7725 5.27832C10.5902 5.51074 10.4466 5.77734 10.3418 6.07812C10.2415 6.37435 10.1914 6.6888 10.1914 7.02148ZM21.2998 9.73535V5.92773C21.2998 5.63607 21.2406 5.38314 21.1221 5.16895C21.0081 4.9502 20.835 4.78158 20.6025 4.66309C20.3701 4.5446 20.083 4.48535 19.7412 4.48535C19.4222 4.48535 19.1419 4.54004 18.9004 4.64941C18.6634 4.75879 18.4766 4.90234 18.3398 5.08008C18.2077 5.25781 18.1416 5.44922 18.1416 5.6543H16.877C16.877 5.38997 16.9453 5.12793 17.082 4.86816C17.2188 4.6084 17.4147 4.3737 17.6699 4.16406C17.9297 3.94987 18.2396 3.78125 18.5996 3.6582C18.9642 3.5306 19.3698 3.4668 19.8164 3.4668C20.3542 3.4668 20.8281 3.55794 21.2383 3.74023C21.653 3.92253 21.9766 4.19824 22.209 4.56738C22.446 4.93197 22.5645 5.38997 22.5645 5.94141V9.38672C22.5645 9.63281 22.585 9.89486 22.626 10.1729C22.6715 10.4508 22.7376 10.6901 22.8242 10.8906V11H21.5049C21.4411 10.8542 21.391 10.6605 21.3545 10.4189C21.318 10.1729 21.2998 9.94499 21.2998 9.73535ZM21.5186 6.51562L21.5322 7.4043H20.2539C19.8939 7.4043 19.5726 7.43392 19.29 7.49316C19.0075 7.54785 18.7705 7.63216 18.5791 7.74609C18.3877 7.86003 18.2419 8.00358 18.1416 8.17676C18.0413 8.34538 17.9912 8.54362 17.9912 8.77148C17.9912 9.00391 18.0436 9.21582 18.1484 9.40723C18.2533 9.59863 18.4105 9.7513 18.6201 9.86523C18.8343 9.97461 19.0964 10.0293 19.4062 10.0293C19.7936 10.0293 20.1354 9.94727 20.4316 9.7832C20.7279 9.61914 20.9626 9.41862 21.1357 9.18164C21.3135 8.94466 21.4092 8.71452 21.4229 8.49121L21.9629 9.09961C21.931 9.29102 21.8444 9.50293 21.7031 9.73535C21.5618 9.96777 21.3727 10.1911 21.1357 10.4053C20.9033 10.6149 20.6253 10.7904 20.3018 10.9316C19.9827 11.0684 19.6227 11.1367 19.2217 11.1367C18.7204 11.1367 18.2806 11.0387 17.9023 10.8428C17.5286 10.6468 17.237 10.3848 17.0273 10.0566C16.8223 9.72396 16.7197 9.35254 16.7197 8.94238C16.7197 8.5459 16.7972 8.19727 16.9521 7.89648C17.1071 7.59115 17.3304 7.33822 17.6221 7.1377C17.9137 6.93262 18.2646 6.77767 18.6748 6.67285C19.085 6.56803 19.543 6.51562 20.0488 6.51562H21.5186ZM25.9277 0.5V11H24.6562V0.5H25.9277ZM27.9512 0.5H29.2227V9.56445L29.1133 11H27.9512V0.5ZM34.2197 7.24023V7.38379C34.2197 7.92155 34.1559 8.42057 34.0283 8.88086C33.9007 9.33659 33.7139 9.73307 33.4678 10.0703C33.2217 10.4076 32.9209 10.6696 32.5654 10.8564C32.21 11.0433 31.8021 11.1367 31.3418 11.1367C30.8724 11.1367 30.46 11.057 30.1045 10.8975C29.7536 10.7334 29.4574 10.4987 29.2158 10.1934C28.9743 9.88802 28.7806 9.51888 28.6348 9.08594C28.4935 8.65299 28.3955 8.16536 28.3408 7.62305V6.99414C28.3955 6.44727 28.4935 5.95736 28.6348 5.52441C28.7806 5.09147 28.9743 4.72233 29.2158 4.41699C29.4574 4.1071 29.7536 3.8724 30.1045 3.71289C30.4554 3.54883 30.8633 3.4668 31.3281 3.4668C31.793 3.4668 32.2054 3.55794 32.5654 3.74023C32.9255 3.91797 33.2262 4.17318 33.4678 4.50586C33.7139 4.83854 33.9007 5.2373 34.0283 5.70215C34.1559 6.16243 34.2197 6.67513 34.2197 7.24023ZM32.9482 7.38379V7.24023C32.9482 6.87109 32.9141 6.52474 32.8457 6.20117C32.7773 5.87305 32.668 5.58594 32.5176 5.33984C32.3672 5.08919 32.1689 4.89323 31.9229 4.75195C31.6768 4.60612 31.3737 4.5332 31.0137 4.5332C30.6947 4.5332 30.4167 4.58789 30.1797 4.69727C29.9473 4.80664 29.749 4.95475 29.585 5.1416C29.4209 5.32389 29.2865 5.53353 29.1816 5.77051C29.0814 6.00293 29.0062 6.24447 28.9561 6.49512V8.14258C29.029 8.46159 29.1475 8.76921 29.3115 9.06543C29.4801 9.3571 29.7035 9.59635 29.9814 9.7832C30.264 9.97005 30.6126 10.0635 31.0273 10.0635C31.3691 10.0635 31.6608 9.99512 31.9023 9.8584C32.1484 9.71712 32.3467 9.52344 32.4971 9.27734C32.652 9.03125 32.766 8.74642 32.8389 8.42285C32.9118 8.09928 32.9482 7.75293 32.9482 7.38379ZM37.8154 10.2344L39.873 3.60352H41.2266L38.2598 12.1416C38.1914 12.3239 38.1003 12.5199 37.9863 12.7295C37.877 12.9437 37.7357 13.1465 37.5625 13.3379C37.3893 13.5293 37.1797 13.6842 36.9336 13.8027C36.6921 13.9258 36.4027 13.9873 36.0654 13.9873C35.9652 13.9873 35.8376 13.9736 35.6826 13.9463C35.5277 13.9189 35.4183 13.8962 35.3545 13.8779L35.3477 12.8525C35.3841 12.8571 35.4411 12.8617 35.5186 12.8662C35.6006 12.8753 35.6576 12.8799 35.6895 12.8799C35.9766 12.8799 36.2204 12.8411 36.4209 12.7637C36.6214 12.6908 36.79 12.5654 36.9268 12.3877C37.068 12.2145 37.1888 11.9753 37.2891 11.6699L37.8154 10.2344ZM36.3047 3.60352L38.2256 9.3457L38.5537 10.6787L37.6445 11.1436L34.9238 3.60352H36.3047ZM52.0684 9.92676V11H47.0918V9.92676H52.0684ZM47.3516 1.04688V11H46.0322V1.04688H47.3516ZM59.6152 9.92676V11H54.6387V9.92676H59.6152ZM54.8984 1.04688V11H53.5791V1.04688H54.8984ZM66.6836 7.83496H67.9961C67.9277 8.46387 67.7477 9.02669 67.4561 9.52344C67.1644 10.0202 66.752 10.4144 66.2188 10.7061C65.6855 10.9932 65.0202 11.1367 64.2227 11.1367C63.6393 11.1367 63.1084 11.0273 62.6299 10.8086C62.1559 10.5898 61.748 10.2799 61.4062 9.87891C61.0645 9.47331 60.8001 8.98796 60.6133 8.42285C60.431 7.85319 60.3398 7.21973 60.3398 6.52246V5.53125C60.3398 4.83398 60.431 4.2028 60.6133 3.6377C60.8001 3.06803 61.0667 2.5804 61.4131 2.1748C61.764 1.76921 62.1855 1.45703 62.6777 1.23828C63.1699 1.01953 63.7236 0.910156 64.3389 0.910156C65.0908 0.910156 65.7266 1.05143 66.2461 1.33398C66.7656 1.61654 67.1689 2.00846 67.4561 2.50977C67.7477 3.00651 67.9277 3.58301 67.9961 4.23926H66.6836C66.6198 3.77441 66.5013 3.37565 66.3281 3.04297C66.1549 2.70573 65.9089 2.44596 65.5898 2.26367C65.2708 2.08138 64.8538 1.99023 64.3389 1.99023C63.8968 1.99023 63.5072 2.07454 63.1699 2.24316C62.8372 2.41178 62.557 2.65104 62.3291 2.96094C62.1058 3.27083 61.9372 3.64225 61.8232 4.0752C61.7093 4.50814 61.6523 4.98893 61.6523 5.51758V6.52246C61.6523 7.01009 61.7025 7.4681 61.8027 7.89648C61.9076 8.32487 62.0648 8.70085 62.2744 9.02441C62.484 9.34798 62.7507 9.60319 63.0742 9.79004C63.3978 9.97233 63.7806 10.0635 64.2227 10.0635C64.7832 10.0635 65.2298 9.97461 65.5625 9.79688C65.8952 9.61914 66.1458 9.36393 66.3145 9.03125C66.4876 8.69857 66.6107 8.2998 66.6836 7.83496ZM78.7695 6.91211H79.7676C79.7676 7.6276 79.5625 8.16536 79.1523 8.52539C78.7467 8.88086 78.1953 9.05859 77.498 9.05859C77.015 9.05859 76.5957 8.94694 76.2402 8.72363C75.8893 8.50033 75.6159 8.19043 75.4199 7.79395C75.2285 7.39746 75.1328 6.93717 75.1328 6.41309V5.62695C75.1328 5.10286 75.2285 4.64258 75.4199 4.24609C75.6159 3.84961 75.8893 3.53971 76.2402 3.31641C76.5957 3.0931 77.015 2.98145 77.498 2.98145C78.1953 2.98145 78.749 3.15918 79.1592 3.51465C79.5693 3.87012 79.7744 4.4056 79.7744 5.12109H78.7764C78.7764 4.66992 78.667 4.34635 78.4482 4.15039C78.234 3.95443 77.9173 3.85645 77.498 3.85645C77.1973 3.85645 76.9443 3.93164 76.7393 4.08203C76.5342 4.23242 76.3792 4.44206 76.2744 4.71094C76.1696 4.97526 76.1172 5.27832 76.1172 5.62012V6.41309C76.1172 6.75944 76.1696 7.06706 76.2744 7.33594C76.3792 7.60026 76.5342 7.80762 76.7393 7.95801C76.9443 8.1084 77.1973 8.18359 77.498 8.18359C77.9173 8.18359 78.234 8.08561 78.4482 7.88965C78.6624 7.69368 78.7695 7.36784 78.7695 6.91211ZM73.5264 6.0166C73.5264 6.62272 73.6312 7.18783 73.8408 7.71191C74.0505 8.236 74.3421 8.69401 74.7158 9.08594C75.0895 9.47786 75.5225 9.7832 76.0146 10.002C76.5068 10.2207 77.0332 10.3301 77.5938 10.3301C78.1543 10.3301 78.6784 10.2207 79.166 10.002C79.6582 9.7832 80.0889 9.47786 80.458 9.08594C80.8317 8.69401 81.1234 8.236 81.333 7.71191C81.5426 7.18783 81.6475 6.62272 81.6475 6.0166C81.6475 5.40592 81.5426 4.84082 81.333 4.32129C81.1234 3.80176 80.8317 3.34831 80.458 2.96094C80.0889 2.56901 79.6582 2.26595 79.166 2.05176C78.6784 1.83301 78.1543 1.72363 77.5938 1.72363C77.0332 1.72363 76.5068 1.83301 76.0146 2.05176C75.5225 2.26595 75.0895 2.56901 74.7158 2.96094C74.3421 3.34831 74.0505 3.80176 73.8408 4.32129C73.6312 4.84082 73.5264 5.40592 73.5264 6.0166ZM72.7402 6.0166C72.7402 5.29199 72.8656 4.61979 73.1162 4C73.3669 3.38021 73.7155 2.84017 74.1621 2.37988C74.6087 1.91504 75.1237 1.55501 75.707 1.2998C76.2949 1.04004 76.9238 0.910156 77.5938 0.910156C78.2637 0.910156 78.8903 1.04004 79.4736 1.2998C80.0615 1.55501 80.5765 1.91504 81.0186 2.37988C81.4652 2.84017 81.8138 3.38021 82.0645 4C82.3151 4.61979 82.4404 5.29199 82.4404 6.0166C82.4404 6.74121 82.3151 7.41341 82.0645 8.0332C81.8138 8.65299 81.4652 9.19759 81.0186 9.66699C80.5765 10.1318 80.0615 10.4941 79.4736 10.7539C78.8903 11.0137 78.2637 11.1436 77.5938 11.1436C76.9238 11.1436 76.2949 11.0137 75.707 10.7539C75.1237 10.4941 74.6087 10.1318 74.1621 9.66699C73.7155 9.19759 73.3669 8.65299 73.1162 8.0332C72.8656 7.41341 72.7402 6.74121 72.7402 6.0166ZM93.9385 9.96094V11H87.4238V10.0908L90.6846 6.46094C91.0856 6.01432 91.3955 5.63607 91.6143 5.32617C91.8376 5.01172 91.9925 4.73145 92.0791 4.48535C92.1702 4.2347 92.2158 3.97949 92.2158 3.71973C92.2158 3.3916 92.1475 3.09538 92.0107 2.83105C91.8786 2.56217 91.6826 2.34798 91.4229 2.18848C91.1631 2.02897 90.8486 1.94922 90.4795 1.94922C90.0374 1.94922 89.6683 2.03581 89.3721 2.20898C89.0804 2.3776 88.8617 2.61458 88.7158 2.91992C88.57 3.22526 88.4971 3.57617 88.4971 3.97266H87.2324C87.2324 3.41211 87.3555 2.89941 87.6016 2.43457C87.8477 1.96973 88.2122 1.60059 88.6953 1.32715C89.1784 1.04915 89.7731 0.910156 90.4795 0.910156C91.1084 0.910156 91.6462 1.02181 92.0928 1.24512C92.5394 1.46387 92.8812 1.77376 93.1182 2.1748C93.3597 2.57129 93.4805 3.03613 93.4805 3.56934C93.4805 3.861 93.4303 4.15723 93.3301 4.45801C93.2344 4.75423 93.0999 5.05046 92.9268 5.34668C92.7581 5.6429 92.5599 5.93457 92.332 6.22168C92.1087 6.50879 91.8695 6.79134 91.6143 7.06934L88.9482 9.96094H93.9385ZM101.54 5.23047V6.74805C101.54 7.5638 101.467 8.25195 101.321 8.8125C101.175 9.37305 100.966 9.82422 100.692 10.166C100.419 10.5078 100.089 10.7562 99.7012 10.9111C99.3184 11.0615 98.8854 11.1367 98.4023 11.1367C98.0195 11.1367 97.6663 11.0889 97.3428 10.9932C97.0192 10.8975 96.7275 10.7448 96.4678 10.5352C96.2126 10.321 95.9938 10.043 95.8115 9.70117C95.6292 9.35938 95.4902 8.94466 95.3945 8.45703C95.2988 7.9694 95.251 7.39974 95.251 6.74805V5.23047C95.251 4.41471 95.3239 3.73112 95.4697 3.17969C95.6201 2.62826 95.832 2.1862 96.1055 1.85352C96.3789 1.51628 96.707 1.27474 97.0898 1.12891C97.4772 0.983073 97.9102 0.910156 98.3887 0.910156C98.776 0.910156 99.1315 0.958008 99.4551 1.05371C99.7832 1.14486 100.075 1.29297 100.33 1.49805C100.585 1.69857 100.802 1.96745 100.979 2.30469C101.162 2.63737 101.301 3.04525 101.396 3.52832C101.492 4.01139 101.54 4.57878 101.54 5.23047ZM100.269 6.95312V5.01855C100.269 4.57194 100.241 4.18001 100.187 3.84277C100.136 3.50098 100.061 3.20931 99.9609 2.96777C99.8607 2.72624 99.7331 2.53027 99.5781 2.37988C99.4277 2.22949 99.2523 2.12012 99.0518 2.05176C98.8558 1.97884 98.6348 1.94238 98.3887 1.94238C98.0879 1.94238 97.8213 1.99935 97.5889 2.11328C97.3564 2.22266 97.1605 2.39811 97.001 2.63965C96.846 2.88118 96.7275 3.19792 96.6455 3.58984C96.5635 3.98177 96.5225 4.45801 96.5225 5.01855V6.95312C96.5225 7.39974 96.5475 7.79395 96.5977 8.13574C96.6523 8.47754 96.7321 8.77376 96.8369 9.02441C96.9417 9.27051 97.0693 9.47331 97.2197 9.63281C97.3701 9.79232 97.5433 9.91081 97.7393 9.98828C97.9398 10.0612 98.1608 10.0977 98.4023 10.0977C98.7122 10.0977 98.9834 10.0384 99.2158 9.91992C99.4482 9.80143 99.6419 9.61686 99.7969 9.36621C99.9564 9.111 100.075 8.78516 100.152 8.38867C100.23 7.98763 100.269 7.50911 100.269 6.95312ZM109.688 9.96094V11H103.174V10.0908L106.435 6.46094C106.836 6.01432 107.146 5.63607 107.364 5.32617C107.588 5.01172 107.743 4.73145 107.829 4.48535C107.92 4.2347 107.966 3.97949 107.966 3.71973C107.966 3.3916 107.897 3.09538 107.761 2.83105C107.629 2.56217 107.433 2.34798 107.173 2.18848C106.913 2.02897 106.599 1.94922 106.229 1.94922C105.787 1.94922 105.418 2.03581 105.122 2.20898C104.83 2.3776 104.612 2.61458 104.466 2.91992C104.32 3.22526 104.247 3.57617 104.247 3.97266H102.982C102.982 3.41211 103.105 2.89941 103.352 2.43457C103.598 1.96973 103.962 1.60059 104.445 1.32715C104.928 1.04915 105.523 0.910156 106.229 0.910156C106.858 0.910156 107.396 1.02181 107.843 1.24512C108.289 1.46387 108.631 1.77376 108.868 2.1748C109.11 2.57129 109.23 3.03613 109.23 3.56934C109.23 3.861 109.18 4.15723 109.08 4.45801C108.984 4.75423 108.85 5.05046 108.677 5.34668C108.508 5.6429 108.31 5.93457 108.082 6.22168C107.859 6.50879 107.619 6.79134 107.364 7.06934L104.698 9.96094H109.688ZM115.198 0.992188V11H113.934V2.57129L111.384 3.50098V2.35938L115 0.992188H115.198Z" fill="white"/>
</svg>
